<svg class="main-svg" xmlns="http://www.w3.org/2000/svg" xmlns:xlink="http://www.w3.org/1999/xlink" width="1200" height="600" style="" viewBox="0 0 1200 600"><rect x="0" y="0" width="1200" height="600" style="fill: rgb(255, 255, 255); fill-opacity: 1;"/><defs id="defs-003d90"><g class="clips"><clipPath id="clip003d90xyplot" class="plotclip"><rect width="1152" height="519"/></clipPath><clipPath class="axesclip" id="clip003d90x"><rect x="48" y="0" width="1152" height="600"/></clipPath><clipPath class="axesclip" id="clip003d90y"><rect x="0" y="0" width="1200" height="519"/></clipPath><clipPath class="axesclip" id="clip003d90xy"><rect x="48" y="0" width="1152" height="519"/></clipPath></g><g class="gradients"/><g class="patterns"/></defs><g class="bglayer"/><g class="layer-below"><g class="imagelayer"/><g class="shapelayer"/></g><g class="cartesianlayer"><g class="subplot xy"><g class="layer-subplot"><g class="shapelayer"/><g class="imagelayer"/></g><g class="gridlayer"><g class="x"><path class="xgrid crisp" transform="translate(354.42,0)" d="M0,0v519" style="stroke: rgb(55, 68, 79); stroke-opacity: 1; stroke-width: 1px;"/><path class="xgrid crisp" transform="translate(599.49,0)" d="M0,0v519" style="stroke: rgb(55, 68, 79); stroke-opacity: 1; stroke-width: 1px;"/><path class="xgrid crisp" transform="translate(844.56,0)" d="M0,0v519" style="stroke: rgb(55, 68, 79); stroke-opacity: 1; stroke-width: 1px;"/><path class="xgrid crisp" transform="translate(1089.64,0)" d="M0,0v519" style="stroke: rgb(55, 68, 79); stroke-opacity: 1; stroke-width: 1px;"/></g><g class="y"><path class="ygrid crisp" transform="translate(0,463.94)" d="M48,0h1152" style="stroke: rgb(55, 68, 79); stroke-opacity: 1; stroke-width: 1px;"/><path class="ygrid crisp" transform="translate(0,391.23)" d="M48,0h1152" style="stroke: rgb(55, 68, 79); stroke-opacity: 1; stroke-width: 1px;"/><path class="ygrid crisp" transform="translate(0,318.53)" d="M48,0h1152" style="stroke: rgb(55, 68, 79); stroke-opacity: 1; stroke-width: 1px;"/><path class="ygrid crisp" transform="translate(0,245.82)" d="M48,0h1152" style="stroke: rgb(55, 68, 79); stroke-opacity: 1; stroke-width: 1px;"/><path class="ygrid crisp" transform="translate(0,173.11)" d="M48,0h1152" style="stroke: rgb(55, 68, 79); stroke-opacity: 1; stroke-width: 1px;"/><path class="ygrid crisp" transform="translate(0,100.4)" d="M48,0h1152" style="stroke: rgb(55, 68, 79); stroke-opacity: 1; stroke-width: 1px;"/><path class="ygrid crisp" transform="translate(0,27.7)" d="M48,0h1152" style="stroke: rgb(55, 68, 79); stroke-opacity: 1; stroke-width: 1px;"/></g></g><g class="zerolinelayer"><path class="xzl zl crisp" transform="translate(109.35,0)" d="M0,0v519" style="stroke: rgb(68, 68, 68); stroke-opacity: 1; stroke-width: 1px;"/></g><path class="xlines-below"/><path class="ylines-below"/><g class="overlines-below"/><g class="xaxislayer-below"/><g class="yaxislayer-below"/><g class="overaxes-below"/><g class="plot" transform="translate(48,0)" clip-path="url(#clip003d90xyplot)"><g class="scatterlayer mlayer"><g class="trace scatter tracefd183a" style="stroke-miterlimit: 2; opacity: 1;"><g class="fills"/><g class="errorbars"/><g class="lines"><path class="js-line" d="M61.35,489.3L110.36,346.66L159.38,262.46L208.39,209.96L257.41,162.41L306.42,125.76L355.44,94.06L404.45,66.33L453.46,70.29L502.48,78.22L551.49,52.46L600.51,35.62L649.52,40.57L698.54,51.47L747.55,209.96" style="vector-effect: non-scaling-stroke; fill: none; stroke: rgb(147, 50, 11); stroke-opacity: 1; stroke-width: 2px; opacity: 1;"/></g><g class="points"><path class="point" transform="translate(61.35,489.3)" d="M3,0A3,3 0 1,1 0,-3A3,3 0 0,1 3,0Z" style="opacity: 1; stroke-width: 0px; fill: rgb(147, 50, 11); fill-opacity: 1;"/><path class="point" transform="translate(61.35,489.3)" d="M3,0A3,3 0 1,1 0,-3A3,3 0 0,1 3,0Z" style="opacity: 1; stroke-width: 0px; fill: rgb(147, 50, 11); fill-opacity: 1;"/><path class="point" transform="translate(110.36,346.66)" d="M3,0A3,3 0 1,1 0,-3A3,3 0 0,1 3,0Z" style="opacity: 1; stroke-width: 0px; fill: rgb(147, 50, 11); fill-opacity: 1;"/><path class="point" transform="translate(159.38,262.46)" d="M3,0A3,3 0 1,1 0,-3A3,3 0 0,1 3,0Z" style="opacity: 1; stroke-width: 0px; fill: rgb(147, 50, 11); fill-opacity: 1;"/><path class="point" transform="translate(208.39,209.96)" d="M3,0A3,3 0 1,1 0,-3A3,3 0 0,1 3,0Z" style="opacity: 1; stroke-width: 0px; fill: rgb(147, 50, 11); fill-opacity: 1;"/><path class="point" transform="translate(257.41,162.41)" d="M3,0A3,3 0 1,1 0,-3A3,3 0 0,1 3,0Z" style="opacity: 1; stroke-width: 0px; fill: rgb(147, 50, 11); fill-opacity: 1;"/><path class="point" transform="translate(306.42,125.76)" d="M3,0A3,3 0 1,1 0,-3A3,3 0 0,1 3,0Z" style="opacity: 1; stroke-width: 0px; fill: rgb(147, 50, 11); fill-opacity: 1;"/><path class="point" transform="translate(355.44,94.06)" d="M3,0A3,3 0 1,1 0,-3A3,3 0 0,1 3,0Z" style="opacity: 1; stroke-width: 0px; fill: rgb(147, 50, 11); fill-opacity: 1;"/><path class="point" transform="translate(404.45,66.33)" d="M3,0A3,3 0 1,1 0,-3A3,3 0 0,1 3,0Z" style="opacity: 1; stroke-width: 0px; fill: rgb(147, 50, 11); fill-opacity: 1;"/><path class="point" transform="translate(453.46,70.29)" d="M3,0A3,3 0 1,1 0,-3A3,3 0 0,1 3,0Z" style="opacity: 1; stroke-width: 0px; fill: rgb(147, 50, 11); fill-opacity: 1;"/><path class="point" transform="translate(502.48,78.22)" d="M3,0A3,3 0 1,1 0,-3A3,3 0 0,1 3,0Z" style="opacity: 1; stroke-width: 0px; fill: rgb(147, 50, 11); fill-opacity: 1;"/><path class="point" transform="translate(551.49,52.46)" d="M3,0A3,3 0 1,1 0,-3A3,3 0 0,1 3,0Z" style="opacity: 1; stroke-width: 0px; fill: rgb(147, 50, 11); fill-opacity: 1;"/><path class="point" transform="translate(600.51,35.62)" d="M3,0A3,3 0 1,1 0,-3A3,3 0 0,1 3,0Z" style="opacity: 1; stroke-width: 0px; fill: rgb(147, 50, 11); fill-opacity: 1;"/><path class="point" transform="translate(649.52,40.57)" d="M3,0A3,3 0 1,1 0,-3A3,3 0 0,1 3,0Z" style="opacity: 1; stroke-width: 0px; fill: rgb(147, 50, 11); fill-opacity: 1;"/><path class="point" transform="translate(698.54,51.47)" d="M3,0A3,3 0 1,1 0,-3A3,3 0 0,1 3,0Z" style="opacity: 1; stroke-width: 0px; fill: rgb(147, 50, 11); fill-opacity: 1;"/><path class="point" transform="translate(747.55,209.96)" d="M3,0A3,3 0 1,1 0,-3A3,3 0 0,1 3,0Z" style="opacity: 1; stroke-width: 0px; fill: rgb(147, 50, 11); fill-opacity: 1;"/></g><g class="text"/></g><g class="trace scatter trace6d0d31" style="stroke-miterlimit: 2; opacity: 1;"><g class="fills"/><g class="errorbars"/><g class="lines"><path class="js-line" d="M61.35,484.37L110.36,292.09L159.38,252.03L208.39,195.95L257.41,141.87L306.42,131.85L355.44,93.79L404.45,63.75L453.46,75.77L502.48,60.75L551.49,56.74L600.51,49.73L649.52,69.76L698.54,37.71L747.55,29.7L796.56,32.7L845.58,131.85" style="vector-effect: non-scaling-stroke; fill: none; stroke: rgb(200, 45, 76); stroke-opacity: 1; stroke-width: 2px; opacity: 1;"/></g><g class="points"><path class="point" transform="translate(61.35,484.37)" d="M3,0A3,3 0 1,1 0,-3A3,3 0 0,1 3,0Z" style="opacity: 1; stroke-width: 0px; fill: rgb(200, 45, 76); fill-opacity: 1;"/><path class="point" transform="translate(61.35,484.37)" d="M3,0A3,3 0 1,1 0,-3A3,3 0 0,1 3,0Z" style="opacity: 1; stroke-width: 0px; fill: rgb(200, 45, 76); fill-opacity: 1;"/><path class="point" transform="translate(110.36,292.09)" d="M3,0A3,3 0 1,1 0,-3A3,3 0 0,1 3,0Z" style="opacity: 1; stroke-width: 0px; fill: rgb(200, 45, 76); fill-opacity: 1;"/><path class="point" transform="translate(159.38,252.03)" d="M3,0A3,3 0 1,1 0,-3A3,3 0 0,1 3,0Z" style="opacity: 1; stroke-width: 0px; fill: rgb(200, 45, 76); fill-opacity: 1;"/><path class="point" transform="translate(208.39,195.95)" d="M3,0A3,3 0 1,1 0,-3A3,3 0 0,1 3,0Z" style="opacity: 1; stroke-width: 0px; fill: rgb(200, 45, 76); fill-opacity: 1;"/><path class="point" transform="translate(257.41,141.87)" d="M3,0A3,3 0 1,1 0,-3A3,3 0 0,1 3,0Z" style="opacity: 1; stroke-width: 0px; fill: rgb(200, 45, 76); fill-opacity: 1;"/><path class="point" transform="translate(306.42,131.85)" d="M3,0A3,3 0 1,1 0,-3A3,3 0 0,1 3,0Z" style="opacity: 1; stroke-width: 0px; fill: rgb(200, 45, 76); fill-opacity: 1;"/><path class="point" transform="translate(355.44,93.79)" d="M3,0A3,3 0 1,1 0,-3A3,3 0 0,1 3,0Z" style="opacity: 1; stroke-width: 0px; fill: rgb(200, 45, 76); fill-opacity: 1;"/><path class="point" transform="translate(404.45,63.75)" d="M3,0A3,3 0 1,1 0,-3A3,3 0 0,1 3,0Z" style="opacity: 1; stroke-width: 0px; fill: rgb(200, 45, 76); fill-opacity: 1;"/><path class="point" transform="translate(453.46,75.77)" d="M3,0A3,3 0 1,1 0,-3A3,3 0 0,1 3,0Z" style="opacity: 1; stroke-width: 0px; fill: rgb(200, 45, 76); fill-opacity: 1;"/><path class="point" transform="translate(502.48,60.75)" d="M3,0A3,3 0 1,1 0,-3A3,3 0 0,1 3,0Z" style="opacity: 1; stroke-width: 0px; fill: rgb(200, 45, 76); fill-opacity: 1;"/><path class="point" transform="translate(551.49,56.74)" d="M3,0A3,3 0 1,1 0,-3A3,3 0 0,1 3,0Z" style="opacity: 1; stroke-width: 0px; fill: rgb(200, 45, 76); fill-opacity: 1;"/><path class="point" transform="translate(600.51,49.73)" d="M3,0A3,3 0 1,1 0,-3A3,3 0 0,1 3,0Z" style="opacity: 1; stroke-width: 0px; fill: rgb(200, 45, 76); fill-opacity: 1;"/><path class="point" transform="translate(649.52,69.76)" d="M3,0A3,3 0 1,1 0,-3A3,3 0 0,1 3,0Z" style="opacity: 1; stroke-width: 0px; fill: rgb(200, 45, 76); fill-opacity: 1;"/><path class="point" transform="translate(698.54,37.71)" d="M3,0A3,3 0 1,1 0,-3A3,3 0 0,1 3,0Z" style="opacity: 1; stroke-width: 0px; fill: rgb(200, 45, 76); fill-opacity: 1;"/><path class="point" transform="translate(747.55,29.7)" d="M3,0A3,3 0 1,1 0,-3A3,3 0 0,1 3,0Z" style="opacity: 1; stroke-width: 0px; fill: rgb(200, 45, 76); fill-opacity: 1;"/><path class="point" transform="translate(796.56,32.7)" d="M3,0A3,3 0 1,1 0,-3A3,3 0 0,1 3,0Z" style="opacity: 1; stroke-width: 0px; fill: rgb(200, 45, 76); fill-opacity: 1;"/><path class="point" transform="translate(845.58,131.85)" d="M3,0A3,3 0 1,1 0,-3A3,3 0 0,1 3,0Z" style="opacity: 1; stroke-width: 0px; fill: rgb(200, 45, 76); fill-opacity: 1;"/></g><g class="text"/></g><g class="trace scatter traceb18d27" style="stroke-miterlimit: 2; opacity: 1;"><g class="fills"/><g class="errorbars"/><g class="lines"><path class="js-line" d="M61.35,484.09L110.36,299.36L159.38,246.02L208.39,191.68L257.41,142.29L306.42,129.45L355.44,97.84L404.45,81.04L453.46,76.1L502.48,50.42L551.49,62.27L600.51,51.41L649.52,50.42L698.54,59.31L747.55,52.39L796.56,33.62L845.58,31.65L894.59,34.61L943.61,45.48L992.62,45.48L1041.64,42.52L1090.65,62.27" style="vector-effect: non-scaling-stroke; fill: none; stroke: rgb(14, 83, 139); stroke-opacity: 1; stroke-width: 2px; opacity: 1;"/></g><g class="points"><path class="point" transform="translate(61.35,484.09)" d="M3,0A3,3 0 1,1 0,-3A3,3 0 0,1 3,0Z" style="opacity: 1; stroke-width: 0px; fill: rgb(14, 83, 139); fill-opacity: 1;"/><path class="point" transform="translate(61.35,484.09)" d="M3,0A3,3 0 1,1 0,-3A3,3 0 0,1 3,0Z" style="opacity: 1; stroke-width: 0px; fill: rgb(14, 83, 139); fill-opacity: 1;"/><path class="point" transform="translate(110.36,299.36)" d="M3,0A3,3 0 1,1 0,-3A3,3 0 0,1 3,0Z" style="opacity: 1; stroke-width: 0px; fill: rgb(14, 83, 139); fill-opacity: 1;"/><path class="point" transform="translate(159.38,246.02)" d="M3,0A3,3 0 1,1 0,-3A3,3 0 0,1 3,0Z" style="opacity: 1; stroke-width: 0px; fill: rgb(14, 83, 139); fill-opacity: 1;"/><path class="point" transform="translate(208.39,191.68)" d="M3,0A3,3 0 1,1 0,-3A3,3 0 0,1 3,0Z" style="opacity: 1; stroke-width: 0px; fill: rgb(14, 83, 139); fill-opacity: 1;"/><path class="point" transform="translate(257.41,142.29)" d="M3,0A3,3 0 1,1 0,-3A3,3 0 0,1 3,0Z" style="opacity: 1; stroke-width: 0px; fill: rgb(14, 83, 139); fill-opacity: 1;"/><path class="point" transform="translate(306.42,129.45)" d="M3,0A3,3 0 1,1 0,-3A3,3 0 0,1 3,0Z" style="opacity: 1; stroke-width: 0px; fill: rgb(14, 83, 139); fill-opacity: 1;"/><path class="point" transform="translate(355.44,97.84)" d="M3,0A3,3 0 1,1 0,-3A3,3 0 0,1 3,0Z" style="opacity: 1; stroke-width: 0px; fill: rgb(14, 83, 139); fill-opacity: 1;"/><path class="point" transform="translate(404.45,81.04)" d="M3,0A3,3 0 1,1 0,-3A3,3 0 0,1 3,0Z" style="opacity: 1; stroke-width: 0px; fill: rgb(14, 83, 139); fill-opacity: 1;"/><path class="point" transform="translate(453.46,76.1)" d="M3,0A3,3 0 1,1 0,-3A3,3 0 0,1 3,0Z" style="opacity: 1; stroke-width: 0px; fill: rgb(14, 83, 139); fill-opacity: 1;"/><path class="point" transform="translate(502.48,50.42)" d="M3,0A3,3 0 1,1 0,-3A3,3 0 0,1 3,0Z" style="opacity: 1; stroke-width: 0px; fill: rgb(14, 83, 139); fill-opacity: 1;"/><path class="point" transform="translate(551.49,62.27)" d="M3,0A3,3 0 1,1 0,-3A3,3 0 0,1 3,0Z" style="opacity: 1; stroke-width: 0px; fill: rgb(14, 83, 139); fill-opacity: 1;"/><path class="point" transform="translate(600.51,51.41)" d="M3,0A3,3 0 1,1 0,-3A3,3 0 0,1 3,0Z" style="opacity: 1; stroke-width: 0px; fill: rgb(14, 83, 139); fill-opacity: 1;"/><path class="point" transform="translate(649.52,50.42)" d="M3,0A3,3 0 1,1 0,-3A3,3 0 0,1 3,0Z" style="opacity: 1; stroke-width: 0px; fill: rgb(14, 83, 139); fill-opacity: 1;"/><path class="point" transform="translate(698.54,59.31)" d="M3,0A3,3 0 1,1 0,-3A3,3 0 0,1 3,0Z" style="opacity: 1; stroke-width: 0px; fill: rgb(14, 83, 139); fill-opacity: 1;"/><path class="point" transform="translate(747.55,52.39)" d="M3,0A3,3 0 1,1 0,-3A3,3 0 0,1 3,0Z" style="opacity: 1; stroke-width: 0px; fill: rgb(14, 83, 139); fill-opacity: 1;"/><path class="point" transform="translate(796.56,33.62)" d="M3,0A3,3 0 1,1 0,-3A3,3 0 0,1 3,0Z" style="opacity: 1; stroke-width: 0px; fill: rgb(14, 83, 139); fill-opacity: 1;"/><path class="point" transform="translate(845.58,31.65)" d="M3,0A3,3 0 1,1 0,-3A3,3 0 0,1 3,0Z" style="opacity: 1; stroke-width: 0px; fill: rgb(14, 83, 139); fill-opacity: 1;"/><path class="point" transform="translate(894.59,34.61)" d="M3,0A3,3 0 1,1 0,-3A3,3 0 0,1 3,0Z" style="opacity: 1; stroke-width: 0px; fill: rgb(14, 83, 139); fill-opacity: 1;"/><path class="point" transform="translate(943.61,45.48)" d="M3,0A3,3 0 1,1 0,-3A3,3 0 0,1 3,0Z" style="opacity: 1; stroke-width: 0px; fill: rgb(14, 83, 139); fill-opacity: 1;"/><path class="point" transform="translate(992.62,45.48)" d="M3,0A3,3 0 1,1 0,-3A3,3 0 0,1 3,0Z" style="opacity: 1; stroke-width: 0px; fill: rgb(14, 83, 139); fill-opacity: 1;"/><path class="point" transform="translate(1041.64,42.52)" d="M3,0A3,3 0 1,1 0,-3A3,3 0 0,1 3,0Z" style="opacity: 1; stroke-width: 0px; fill: rgb(14, 83, 139); fill-opacity: 1;"/><path class="point" transform="translate(1090.65,62.27)" d="M3,0A3,3 0 1,1 0,-3A3,3 0 0,1 3,0Z" style="opacity: 1; stroke-width: 0px; fill: rgb(14, 83, 139); fill-opacity: 1;"/></g><g class="text"/></g><g class="trace scatter trace87fc34" style="stroke-miterlimit: 2; opacity: 1;"><g class="fills"/><g class="errorbars"/><g class="lines"><path class="js-line" d="M61.35,478.17L110.36,329L159.38,255.9L208.39,228.24L257.41,183.78L306.42,139.33L355.44,121.54L404.45,117.59L453.46,87.96L502.48,73.14L551.49,82.03L600.51,48.44L649.52,48.44L698.54,68.2L747.55,50.42L796.56,183.78" style="vector-effect: non-scaling-stroke; fill: none; stroke: rgb(138, 99, 191); stroke-opacity: 1; stroke-width: 2px; opacity: 1;"/></g><g class="points"><path class="point" transform="translate(61.35,478.17)" d="M3,0A3,3 0 1,1 0,-3A3,3 0 0,1 3,0Z" style="opacity: 1; stroke-width: 0px; fill: rgb(138, 99, 191); fill-opacity: 1;"/><path class="point" transform="translate(61.35,478.17)" d="M3,0A3,3 0 1,1 0,-3A3,3 0 0,1 3,0Z" style="opacity: 1; stroke-width: 0px; fill: rgb(138, 99, 191); fill-opacity: 1;"/><path class="point" transform="translate(110.36,329)" d="M3,0A3,3 0 1,1 0,-3A3,3 0 0,1 3,0Z" style="opacity: 1; stroke-width: 0px; fill: rgb(138, 99, 191); fill-opacity: 1;"/><path class="point" transform="translate(159.38,255.9)" d="M3,0A3,3 0 1,1 0,-3A3,3 0 0,1 3,0Z" style="opacity: 1; stroke-width: 0px; fill: rgb(138, 99, 191); fill-opacity: 1;"/><path class="point" transform="translate(208.39,228.24)" d="M3,0A3,3 0 1,1 0,-3A3,3 0 0,1 3,0Z" style="opacity: 1; stroke-width: 0px; fill: rgb(138, 99, 191); fill-opacity: 1;"/><path class="point" transform="translate(257.41,183.78)" d="M3,0A3,3 0 1,1 0,-3A3,3 0 0,1 3,0Z" style="opacity: 1; stroke-width: 0px; fill: rgb(138, 99, 191); fill-opacity: 1;"/><path class="point" transform="translate(306.42,139.33)" d="M3,0A3,3 0 1,1 0,-3A3,3 0 0,1 3,0Z" style="opacity: 1; stroke-width: 0px; fill: rgb(138, 99, 191); fill-opacity: 1;"/><path class="point" transform="translate(355.44,121.54)" d="M3,0A3,3 0 1,1 0,-3A3,3 0 0,1 3,0Z" style="opacity: 1; stroke-width: 0px; fill: rgb(138, 99, 191); fill-opacity: 1;"/><path class="point" transform="translate(404.45,117.59)" d="M3,0A3,3 0 1,1 0,-3A3,3 0 0,1 3,0Z" style="opacity: 1; stroke-width: 0px; fill: rgb(138, 99, 191); fill-opacity: 1;"/><path class="point" transform="translate(453.46,87.96)" d="M3,0A3,3 0 1,1 0,-3A3,3 0 0,1 3,0Z" style="opacity: 1; stroke-width: 0px; fill: rgb(138, 99, 191); fill-opacity: 1;"/><path class="point" transform="translate(502.48,73.14)" d="M3,0A3,3 0 1,1 0,-3A3,3 0 0,1 3,0Z" style="opacity: 1; stroke-width: 0px; fill: rgb(138, 99, 191); fill-opacity: 1;"/><path class="point" transform="translate(551.49,82.03)" d="M3,0A3,3 0 1,1 0,-3A3,3 0 0,1 3,0Z" style="opacity: 1; stroke-width: 0px; fill: rgb(138, 99, 191); fill-opacity: 1;"/><path class="point" transform="translate(600.51,48.44)" d="M3,0A3,3 0 1,1 0,-3A3,3 0 0,1 3,0Z" style="opacity: 1; stroke-width: 0px; fill: rgb(138, 99, 191); fill-opacity: 1;"/><path class="point" transform="translate(649.52,48.44)" d="M3,0A3,3 0 1,1 0,-3A3,3 0 0,1 3,0Z" style="opacity: 1; stroke-width: 0px; fill: rgb(138, 99, 191); fill-opacity: 1;"/><path class="point" transform="translate(698.54,68.2)" d="M3,0A3,3 0 1,1 0,-3A3,3 0 0,1 3,0Z" style="opacity: 1; stroke-width: 0px; fill: rgb(138, 99, 191); fill-opacity: 1;"/><path class="point" transform="translate(747.55,50.42)" d="M3,0A3,3 0 1,1 0,-3A3,3 0 0,1 3,0Z" style="opacity: 1; stroke-width: 0px; fill: rgb(138, 99, 191); fill-opacity: 1;"/><path class="point" transform="translate(796.56,183.78)" d="M3,0A3,3 0 1,1 0,-3A3,3 0 0,1 3,0Z" style="opacity: 1; stroke-width: 0px; fill: rgb(138, 99, 191); fill-opacity: 1;"/></g><g class="text"/></g></g></g><g class="overplot"/><path class="xlines-above crisp" d="M0,0" style="fill: none;"/><path class="ylines-above crisp" d="M0,0" style="fill: none;"/><g class="overlines-above"/><g class="xaxislayer-above"><g class="xtick"><text text-anchor="middle" x="0" y="531" transform="translate(109.35,0)" style="font-family: 'Open Sans', verdana, arial, sans-serif; font-size: 11px; fill: rgb(146, 164, 179); fill-opacity: 1; white-space: pre; opacity: 1;">0</text></g><g class="xtick"><text text-anchor="middle" x="0" y="531" style="font-family: 'Open Sans', verdana, arial, sans-serif; font-size: 11px; fill: rgb(146, 164, 179); fill-opacity: 1; white-space: pre; opacity: 1;" transform="translate(354.42,0)">5</text></g><g class="xtick"><text text-anchor="middle" x="0" y="531" style="font-family: 'Open Sans', verdana, arial, sans-serif; font-size: 11px; fill: rgb(146, 164, 179); fill-opacity: 1; white-space: pre; opacity: 1;" transform="translate(599.49,0)">10</text></g><g class="xtick"><text text-anchor="middle" x="0" y="531" style="font-family: 'Open Sans', verdana, arial, sans-serif; font-size: 11px; fill: rgb(146, 164, 179); fill-opacity: 1; white-space: pre; opacity: 1;" transform="translate(844.56,0)">15</text></g><g class="xtick"><text text-anchor="middle" x="0" y="531" style="font-family: 'Open Sans', verdana, arial, sans-serif; font-size: 11px; fill: rgb(146, 164, 179); fill-opacity: 1; white-space: pre; opacity: 1;" transform="translate(1089.64,0)">20</text></g></g><g class="yaxislayer-above"><g class="ytick"><text text-anchor="end" x="47" y="3.8499999999999996" transform="translate(0,463.94)" style="font-family: 'Open Sans', verdana, arial, sans-serif; font-size: 11px; fill: rgb(146, 164, 179); fill-opacity: 1; white-space: pre; opacity: 1;">0.4</text></g><g class="ytick"><text text-anchor="end" x="47" y="3.8499999999999996" style="font-family: 'Open Sans', verdana, arial, sans-serif; font-size: 11px; fill: rgb(146, 164, 179); fill-opacity: 1; white-space: pre; opacity: 1;" transform="translate(0,391.23)">0.5</text></g><g class="ytick"><text text-anchor="end" x="47" y="3.8499999999999996" style="font-family: 'Open Sans', verdana, arial, sans-serif; font-size: 11px; fill: rgb(146, 164, 179); fill-opacity: 1; white-space: pre; opacity: 1;" transform="translate(0,318.53)">0.6</text></g><g class="ytick"><text text-anchor="end" x="47" y="3.8499999999999996" style="font-family: 'Open Sans', verdana, arial, sans-serif; font-size: 11px; fill: rgb(146, 164, 179); fill-opacity: 1; white-space: pre; opacity: 1;" transform="translate(0,245.82)">0.7</text></g><g class="ytick"><text text-anchor="end" x="47" y="3.8499999999999996" style="font-family: 'Open Sans', verdana, arial, sans-serif; font-size: 11px; fill: rgb(146, 164, 179); fill-opacity: 1; white-space: pre; opacity: 1;" transform="translate(0,173.11)">0.8</text></g><g class="ytick"><text text-anchor="end" x="47" y="3.8499999999999996" style="font-family: 'Open Sans', verdana, arial, sans-serif; font-size: 11px; fill: rgb(146, 164, 179); fill-opacity: 1; white-space: pre; opacity: 1;" transform="translate(0,100.4)">0.9</text></g><g class="ytick"><text text-anchor="end" x="47" y="3.8499999999999996" style="font-family: 'Open Sans', verdana, arial, sans-serif; font-size: 11px; fill: rgb(146, 164, 179); fill-opacity: 1; white-space: pre; opacity: 1;" transform="translate(0,27.7)">1</text></g></g><g class="overaxes-above"/></g></g><g class="polarlayer"/><g class="ternarylayer"/><g class="geolayer"/><g class="funnelarealayer"/><g class="pielayer"/><g class="iciclelayer"/><g class="treemaplayer"/><g class="sunburstlayer"/><g class="glimages"/><defs id="topdefs-003d90"><g class="clips"/><clipPath id="legend003d90"><rect width="438" height="29" x="0" y="0"/></clipPath></defs><g class="layer-above"><g class="imagelayer"/><g class="shapelayer"/></g><g class="infolayer"><g class="legend" pointer-events="all" transform="translate(48,570.9000000000001)"><rect class="bg" shape-rendering="crispEdges" style="stroke: rgb(68, 68, 68); stroke-opacity: 1; fill: rgb(255, 255, 255); fill-opacity: 1; stroke-width: 0px;" width="438" height="29" x="0" y="0"/><g class="scrollbox" transform="" clip-path="url(#legend003d90)"><g class="groups"><g class="traces" transform="translate(0,14.5)" style="opacity: 1;"><text class="legendtext" text-anchor="start" x="40" y="4.680000000000001" style="font-family: 'Open Sans', verdana, arial, sans-serif; font-size: 12px; fill: rgb(232, 236, 240); fill-opacity: 1; white-space: pre;">75_frames</text><g class="layers" style="opacity: 1;"><g class="legendfill"/><g class="legendlines"><path class="js-line" d="M5,0h30" style="fill: none; stroke: rgb(147, 50, 11); stroke-opacity: 1; stroke-width: 2px;"/></g><g class="legendsymbols"><g class="legendpoints"><path class="scatterpts" transform="translate(20,0)" d="M3,0A3,3 0 1,1 0,-3A3,3 0 0,1 3,0Z" style="opacity: 1; stroke-width: 0px; fill: rgb(147, 50, 11); fill-opacity: 1;"/></g></g></g><rect class="legendtoggle" x="0" y="-9.5" width="106.9429702758789" height="19" style="fill: rgb(0, 0, 0); fill-opacity: 0;"/></g><g class="traces" transform="translate(109.4429702758789,14.5)" style="opacity: 1;"><text class="legendtext" text-anchor="start" x="40" y="4.680000000000001" style="font-family: 'Open Sans', verdana, arial, sans-serif; font-size: 12px; fill: rgb(232, 236, 240); fill-opacity: 1; white-space: pre;">90_frames</text><g class="layers" style="opacity: 1;"><g class="legendfill"/><g class="legendlines"><path class="js-line" d="M5,0h30" style="fill: none; stroke: rgb(200, 45, 76); stroke-opacity: 1; stroke-width: 2px;"/></g><g class="legendsymbols"><g class="legendpoints"><path class="scatterpts" transform="translate(20,0)" d="M3,0A3,3 0 1,1 0,-3A3,3 0 0,1 3,0Z" style="opacity: 1; stroke-width: 0px; fill: rgb(200, 45, 76); fill-opacity: 1;"/></g></g></g><rect class="legendtoggle" x="0" y="-9.5" width="106.9429702758789" height="19" style="fill: rgb(0, 0, 0); fill-opacity: 0;"/></g><g class="traces" transform="translate(218.8859405517578,14.5)" style="opacity: 1;"><text class="legendtext" text-anchor="start" x="40" y="4.680000000000001" style="font-family: 'Open Sans', verdana, arial, sans-serif; font-size: 12px; fill: rgb(232, 236, 240); fill-opacity: 1; white-space: pre;">60_frames</text><g class="layers" style="opacity: 1;"><g class="legendfill"/><g class="legendlines"><path class="js-line" d="M5,0h30" style="fill: none; stroke: rgb(14, 83, 139); stroke-opacity: 1; stroke-width: 2px;"/></g><g class="legendsymbols"><g class="legendpoints"><path class="scatterpts" transform="translate(20,0)" d="M3,0A3,3 0 1,1 0,-3A3,3 0 0,1 3,0Z" style="opacity: 1; stroke-width: 0px; fill: rgb(14, 83, 139); fill-opacity: 1;"/></g></g></g><rect class="legendtoggle" x="0" y="-9.5" width="106.9429702758789" height="19" style="fill: rgb(0, 0, 0); fill-opacity: 0;"/></g><g class="traces" transform="translate(328.3289108276367,14.5)" style="opacity: 1;"><text class="legendtext" text-anchor="start" x="40" y="4.680000000000001" style="font-family: 'Open Sans', verdana, arial, sans-serif; font-size: 12px; fill: rgb(232, 236, 240); fill-opacity: 1; white-space: pre;">45_frames</text><g class="layers" style="opacity: 1;"><g class="legendfill"/><g class="legendlines"><path class="js-line" d="M5,0h30" style="fill: none; stroke: rgb(138, 99, 191); stroke-opacity: 1; stroke-width: 2px;"/></g><g class="legendsymbols"><g class="legendpoints"><path class="scatterpts" transform="translate(20,0)" d="M3,0A3,3 0 1,1 0,-3A3,3 0 0,1 3,0Z" style="opacity: 1; stroke-width: 0px; fill: rgb(138, 99, 191); fill-opacity: 1;"/></g></g></g><rect class="legendtoggle" x="0" y="-9.5" width="106.9429702758789" height="19" style="fill: rgb(0, 0, 0); fill-opacity: 0;"/></g></g></g><rect class="scrollbar" rx="20" ry="3" width="0" height="0" style="fill: rgb(128, 139, 164); fill-opacity: 1;" x="0" y="0"/></g><g class="g-gtitle"/><g class="g-xtitle"><text class="xtitle" x="624" y="571" text-anchor="middle" style="font-family: 'Open Sans', verdana, arial, sans-serif; font-size: 14px; fill: rgb(232, 236, 240); opacity: 1; font-weight: normal; white-space: pre;">Step</text></g><g class="g-ytitle"/></g></svg>