<svg class="main-svg" xmlns="http://www.w3.org/2000/svg" xmlns:xlink="http://www.w3.org/1999/xlink" width="1200" height="600" style="" viewBox="0 0 1200 600"><rect x="0" y="0" width="1200" height="600" style="fill: rgb(255, 255, 255); fill-opacity: 1;"/><defs id="defs-cd946c"><g class="clips"><clipPath id="clipcd946cxyplot" class="plotclip"><rect width="1152" height="519"/></clipPath><clipPath class="axesclip" id="clipcd946cx"><rect x="48" y="0" width="1152" height="600"/></clipPath><clipPath class="axesclip" id="clipcd946cy"><rect x="0" y="0" width="1200" height="519"/></clipPath><clipPath class="axesclip" id="clipcd946cxy"><rect x="48" y="0" width="1152" height="519"/></clipPath></g><g class="gradients"/><g class="patterns"/></defs><g class="bglayer"/><g class="layer-below"><g class="imagelayer"/><g class="shapelayer"/></g><g class="cartesianlayer"><g class="subplot xy"><g class="layer-subplot"><g class="shapelayer"/><g class="imagelayer"/></g><g class="gridlayer"><g class="x"><path class="xgrid crisp" transform="translate(354.42,0)" d="M0,0v519" style="stroke: rgb(55, 68, 79); stroke-opacity: 1; stroke-width: 1px;"/><path class="xgrid crisp" transform="translate(599.49,0)" d="M0,0v519" style="stroke: rgb(55, 68, 79); stroke-opacity: 1; stroke-width: 1px;"/><path class="xgrid crisp" transform="translate(844.56,0)" d="M0,0v519" style="stroke: rgb(55, 68, 79); stroke-opacity: 1; stroke-width: 1px;"/><path class="xgrid crisp" transform="translate(1089.64,0)" d="M0,0v519" style="stroke: rgb(55, 68, 79); stroke-opacity: 1; stroke-width: 1px;"/></g><g class="y"><path class="ygrid crisp" transform="translate(0,509.2)" d="M48,0h1152" style="stroke: rgb(55, 68, 79); stroke-opacity: 1; stroke-width: 1px;"/><path class="ygrid crisp" transform="translate(0,455.75)" d="M48,0h1152" style="stroke: rgb(55, 68, 79); stroke-opacity: 1; stroke-width: 1px;"/><path class="ygrid crisp" transform="translate(0,402.31)" d="M48,0h1152" style="stroke: rgb(55, 68, 79); stroke-opacity: 1; stroke-width: 1px;"/><path class="ygrid crisp" transform="translate(0,348.87)" d="M48,0h1152" style="stroke: rgb(55, 68, 79); stroke-opacity: 1; stroke-width: 1px;"/><path class="ygrid crisp" transform="translate(0,295.43)" d="M48,0h1152" style="stroke: rgb(55, 68, 79); stroke-opacity: 1; stroke-width: 1px;"/><path class="ygrid crisp" transform="translate(0,241.99)" d="M48,0h1152" style="stroke: rgb(55, 68, 79); stroke-opacity: 1; stroke-width: 1px;"/><path class="ygrid crisp" transform="translate(0,188.55)" d="M48,0h1152" style="stroke: rgb(55, 68, 79); stroke-opacity: 1; stroke-width: 1px;"/><path class="ygrid crisp" transform="translate(0,135.11)" d="M48,0h1152" style="stroke: rgb(55, 68, 79); stroke-opacity: 1; stroke-width: 1px;"/><path class="ygrid crisp" transform="translate(0,81.67)" d="M48,0h1152" style="stroke: rgb(55, 68, 79); stroke-opacity: 1; stroke-width: 1px;"/><path class="ygrid crisp" transform="translate(0,28.23)" d="M48,0h1152" style="stroke: rgb(55, 68, 79); stroke-opacity: 1; stroke-width: 1px;"/></g></g><g class="zerolinelayer"><path class="xzl zl crisp" transform="translate(109.35,0)" d="M0,0v519" style="stroke: rgb(68, 68, 68); stroke-opacity: 1; stroke-width: 1px;"/></g><path class="xlines-below"/><path class="ylines-below"/><g class="overlines-below"/><g class="xaxislayer-below"/><g class="yaxislayer-below"/><g class="overaxes-below"/><g class="plot" transform="translate(48,0)" clip-path="url(#clipcd946cxyplot)"><g class="scatterlayer mlayer"><g class="trace scatter trace578599" style="stroke-miterlimit: 2; opacity: 1;"><g class="fills"/><g class="errorbars"/><g class="lines"><path class="js-line" d="M61.35,486.19L110.36,368.24L159.38,283.05L208.39,214.62L257.41,163.65L306.42,121.42L355.44,90.11L404.45,65.36L453.46,63.18L502.48,70.46L551.49,50.8L600.51,34.05L649.52,37.69L698.54,46.43L747.55,214.62" style="vector-effect: non-scaling-stroke; fill: none; stroke: rgb(147, 50, 11); stroke-opacity: 1; stroke-width: 2px; opacity: 1;"/></g><g class="points"><path class="point" transform="translate(61.35,486.19)" d="M3,0A3,3 0 1,1 0,-3A3,3 0 0,1 3,0Z" style="opacity: 1; stroke-width: 0px; fill: rgb(147, 50, 11); fill-opacity: 1;"/><path class="point" transform="translate(61.35,486.19)" d="M3,0A3,3 0 1,1 0,-3A3,3 0 0,1 3,0Z" style="opacity: 1; stroke-width: 0px; fill: rgb(147, 50, 11); fill-opacity: 1;"/><path class="point" transform="translate(110.36,368.24)" d="M3,0A3,3 0 1,1 0,-3A3,3 0 0,1 3,0Z" style="opacity: 1; stroke-width: 0px; fill: rgb(147, 50, 11); fill-opacity: 1;"/><path class="point" transform="translate(159.38,283.05)" d="M3,0A3,3 0 1,1 0,-3A3,3 0 0,1 3,0Z" style="opacity: 1; stroke-width: 0px; fill: rgb(147, 50, 11); fill-opacity: 1;"/><path class="point" transform="translate(208.39,214.62)" d="M3,0A3,3 0 1,1 0,-3A3,3 0 0,1 3,0Z" style="opacity: 1; stroke-width: 0px; fill: rgb(147, 50, 11); fill-opacity: 1;"/><path class="point" transform="translate(257.41,163.65)" d="M3,0A3,3 0 1,1 0,-3A3,3 0 0,1 3,0Z" style="opacity: 1; stroke-width: 0px; fill: rgb(147, 50, 11); fill-opacity: 1;"/><path class="point" transform="translate(306.42,121.42)" d="M3,0A3,3 0 1,1 0,-3A3,3 0 0,1 3,0Z" style="opacity: 1; stroke-width: 0px; fill: rgb(147, 50, 11); fill-opacity: 1;"/><path class="point" transform="translate(355.44,90.11)" d="M3,0A3,3 0 1,1 0,-3A3,3 0 0,1 3,0Z" style="opacity: 1; stroke-width: 0px; fill: rgb(147, 50, 11); fill-opacity: 1;"/><path class="point" transform="translate(404.45,65.36)" d="M3,0A3,3 0 1,1 0,-3A3,3 0 0,1 3,0Z" style="opacity: 1; stroke-width: 0px; fill: rgb(147, 50, 11); fill-opacity: 1;"/><path class="point" transform="translate(453.46,63.18)" d="M3,0A3,3 0 1,1 0,-3A3,3 0 0,1 3,0Z" style="opacity: 1; stroke-width: 0px; fill: rgb(147, 50, 11); fill-opacity: 1;"/><path class="point" transform="translate(502.48,70.46)" d="M3,0A3,3 0 1,1 0,-3A3,3 0 0,1 3,0Z" style="opacity: 1; stroke-width: 0px; fill: rgb(147, 50, 11); fill-opacity: 1;"/><path class="point" transform="translate(551.49,50.8)" d="M3,0A3,3 0 1,1 0,-3A3,3 0 0,1 3,0Z" style="opacity: 1; stroke-width: 0px; fill: rgb(147, 50, 11); fill-opacity: 1;"/><path class="point" transform="translate(600.51,34.05)" d="M3,0A3,3 0 1,1 0,-3A3,3 0 0,1 3,0Z" style="opacity: 1; stroke-width: 0px; fill: rgb(147, 50, 11); fill-opacity: 1;"/><path class="point" transform="translate(649.52,37.69)" d="M3,0A3,3 0 1,1 0,-3A3,3 0 0,1 3,0Z" style="opacity: 1; stroke-width: 0px; fill: rgb(147, 50, 11); fill-opacity: 1;"/><path class="point" transform="translate(698.54,46.43)" d="M3,0A3,3 0 1,1 0,-3A3,3 0 0,1 3,0Z" style="opacity: 1; stroke-width: 0px; fill: rgb(147, 50, 11); fill-opacity: 1;"/><path class="point" transform="translate(747.55,214.62)" d="M3,0A3,3 0 1,1 0,-3A3,3 0 0,1 3,0Z" style="opacity: 1; stroke-width: 0px; fill: rgb(147, 50, 11); fill-opacity: 1;"/></g><g class="text"/></g><g class="trace scatter trace3d1c43" style="stroke-miterlimit: 2; opacity: 1;"><g class="fills"/><g class="errorbars"/><g class="lines"><path class="js-line" d="M61.35,458.85L110.36,317.51L159.38,256.42L208.39,191.64L257.41,133.49L306.42,122.45L355.44,89.32L404.45,59.88L453.46,66.5L502.48,53.99L551.49,51.78L600.51,45.16L649.52,61.35L698.54,35.59L747.55,29.7L796.56,31.91L845.58,122.45" style="vector-effect: non-scaling-stroke; fill: none; stroke: rgb(200, 45, 76); stroke-opacity: 1; stroke-width: 2px; opacity: 1;"/></g><g class="points"><path class="point" transform="translate(61.35,458.85)" d="M3,0A3,3 0 1,1 0,-3A3,3 0 0,1 3,0Z" style="opacity: 1; stroke-width: 0px; fill: rgb(200, 45, 76); fill-opacity: 1;"/><path class="point" transform="translate(61.35,458.85)" d="M3,0A3,3 0 1,1 0,-3A3,3 0 0,1 3,0Z" style="opacity: 1; stroke-width: 0px; fill: rgb(200, 45, 76); fill-opacity: 1;"/><path class="point" transform="translate(110.36,317.51)" d="M3,0A3,3 0 1,1 0,-3A3,3 0 0,1 3,0Z" style="opacity: 1; stroke-width: 0px; fill: rgb(200, 45, 76); fill-opacity: 1;"/><path class="point" transform="translate(159.38,256.42)" d="M3,0A3,3 0 1,1 0,-3A3,3 0 0,1 3,0Z" style="opacity: 1; stroke-width: 0px; fill: rgb(200, 45, 76); fill-opacity: 1;"/><path class="point" transform="translate(208.39,191.64)" d="M3,0A3,3 0 1,1 0,-3A3,3 0 0,1 3,0Z" style="opacity: 1; stroke-width: 0px; fill: rgb(200, 45, 76); fill-opacity: 1;"/><path class="point" transform="translate(257.41,133.49)" d="M3,0A3,3 0 1,1 0,-3A3,3 0 0,1 3,0Z" style="opacity: 1; stroke-width: 0px; fill: rgb(200, 45, 76); fill-opacity: 1;"/><path class="point" transform="translate(306.42,122.45)" d="M3,0A3,3 0 1,1 0,-3A3,3 0 0,1 3,0Z" style="opacity: 1; stroke-width: 0px; fill: rgb(200, 45, 76); fill-opacity: 1;"/><path class="point" transform="translate(355.44,89.32)" d="M3,0A3,3 0 1,1 0,-3A3,3 0 0,1 3,0Z" style="opacity: 1; stroke-width: 0px; fill: rgb(200, 45, 76); fill-opacity: 1;"/><path class="point" transform="translate(404.45,59.88)" d="M3,0A3,3 0 1,1 0,-3A3,3 0 0,1 3,0Z" style="opacity: 1; stroke-width: 0px; fill: rgb(200, 45, 76); fill-opacity: 1;"/><path class="point" transform="translate(453.46,66.5)" d="M3,0A3,3 0 1,1 0,-3A3,3 0 0,1 3,0Z" style="opacity: 1; stroke-width: 0px; fill: rgb(200, 45, 76); fill-opacity: 1;"/><path class="point" transform="translate(502.48,53.99)" d="M3,0A3,3 0 1,1 0,-3A3,3 0 0,1 3,0Z" style="opacity: 1; stroke-width: 0px; fill: rgb(200, 45, 76); fill-opacity: 1;"/><path class="point" transform="translate(551.49,51.78)" d="M3,0A3,3 0 1,1 0,-3A3,3 0 0,1 3,0Z" style="opacity: 1; stroke-width: 0px; fill: rgb(200, 45, 76); fill-opacity: 1;"/><path class="point" transform="translate(600.51,45.16)" d="M3,0A3,3 0 1,1 0,-3A3,3 0 0,1 3,0Z" style="opacity: 1; stroke-width: 0px; fill: rgb(200, 45, 76); fill-opacity: 1;"/><path class="point" transform="translate(649.52,61.35)" d="M3,0A3,3 0 1,1 0,-3A3,3 0 0,1 3,0Z" style="opacity: 1; stroke-width: 0px; fill: rgb(200, 45, 76); fill-opacity: 1;"/><path class="point" transform="translate(698.54,35.59)" d="M3,0A3,3 0 1,1 0,-3A3,3 0 0,1 3,0Z" style="opacity: 1; stroke-width: 0px; fill: rgb(200, 45, 76); fill-opacity: 1;"/><path class="point" transform="translate(747.55,29.7)" d="M3,0A3,3 0 1,1 0,-3A3,3 0 0,1 3,0Z" style="opacity: 1; stroke-width: 0px; fill: rgb(200, 45, 76); fill-opacity: 1;"/><path class="point" transform="translate(796.56,31.91)" d="M3,0A3,3 0 1,1 0,-3A3,3 0 0,1 3,0Z" style="opacity: 1; stroke-width: 0px; fill: rgb(200, 45, 76); fill-opacity: 1;"/><path class="point" transform="translate(845.58,122.45)" d="M3,0A3,3 0 1,1 0,-3A3,3 0 0,1 3,0Z" style="opacity: 1; stroke-width: 0px; fill: rgb(200, 45, 76); fill-opacity: 1;"/></g><g class="text"/></g><g class="trace scatter trace94aff5" style="stroke-miterlimit: 2; opacity: 1;"><g class="fills"/><g class="errorbars"/><g class="lines"><path class="js-line" d="M61.35,474.78L110.36,327.38L159.38,251.87L208.39,198.86L257.41,138.59L306.42,121.89L355.44,93.58L404.45,73.97L453.46,69.62L502.48,46.38L551.49,55.82L600.51,46.38L649.52,45.65L698.54,53.64L747.55,47.83L796.56,33.31L845.58,31.13L894.59,33.31L943.61,42.02L992.62,42.75L1041.64,40.57L1090.65,55.82" style="vector-effect: non-scaling-stroke; fill: none; stroke: rgb(14, 83, 139); stroke-opacity: 1; stroke-width: 2px; opacity: 1;"/></g><g class="points"><path class="point" transform="translate(61.35,474.78)" d="M3,0A3,3 0 1,1 0,-3A3,3 0 0,1 3,0Z" style="opacity: 1; stroke-width: 0px; fill: rgb(14, 83, 139); fill-opacity: 1;"/><path class="point" transform="translate(61.35,474.78)" d="M3,0A3,3 0 1,1 0,-3A3,3 0 0,1 3,0Z" style="opacity: 1; stroke-width: 0px; fill: rgb(14, 83, 139); fill-opacity: 1;"/><path class="point" transform="translate(110.36,327.38)" d="M3,0A3,3 0 1,1 0,-3A3,3 0 0,1 3,0Z" style="opacity: 1; stroke-width: 0px; fill: rgb(14, 83, 139); fill-opacity: 1;"/><path class="point" transform="translate(159.38,251.87)" d="M3,0A3,3 0 1,1 0,-3A3,3 0 0,1 3,0Z" style="opacity: 1; stroke-width: 0px; fill: rgb(14, 83, 139); fill-opacity: 1;"/><path class="point" transform="translate(208.39,198.86)" d="M3,0A3,3 0 1,1 0,-3A3,3 0 0,1 3,0Z" style="opacity: 1; stroke-width: 0px; fill: rgb(14, 83, 139); fill-opacity: 1;"/><path class="point" transform="translate(257.41,138.59)" d="M3,0A3,3 0 1,1 0,-3A3,3 0 0,1 3,0Z" style="opacity: 1; stroke-width: 0px; fill: rgb(14, 83, 139); fill-opacity: 1;"/><path class="point" transform="translate(306.42,121.89)" d="M3,0A3,3 0 1,1 0,-3A3,3 0 0,1 3,0Z" style="opacity: 1; stroke-width: 0px; fill: rgb(14, 83, 139); fill-opacity: 1;"/><path class="point" transform="translate(355.44,93.58)" d="M3,0A3,3 0 1,1 0,-3A3,3 0 0,1 3,0Z" style="opacity: 1; stroke-width: 0px; fill: rgb(14, 83, 139); fill-opacity: 1;"/><path class="point" transform="translate(404.45,73.97)" d="M3,0A3,3 0 1,1 0,-3A3,3 0 0,1 3,0Z" style="opacity: 1; stroke-width: 0px; fill: rgb(14, 83, 139); fill-opacity: 1;"/><path class="point" transform="translate(453.46,69.62)" d="M3,0A3,3 0 1,1 0,-3A3,3 0 0,1 3,0Z" style="opacity: 1; stroke-width: 0px; fill: rgb(14, 83, 139); fill-opacity: 1;"/><path class="point" transform="translate(502.48,46.38)" d="M3,0A3,3 0 1,1 0,-3A3,3 0 0,1 3,0Z" style="opacity: 1; stroke-width: 0px; fill: rgb(14, 83, 139); fill-opacity: 1;"/><path class="point" transform="translate(551.49,55.82)" d="M3,0A3,3 0 1,1 0,-3A3,3 0 0,1 3,0Z" style="opacity: 1; stroke-width: 0px; fill: rgb(14, 83, 139); fill-opacity: 1;"/><path class="point" transform="translate(600.51,46.38)" d="M3,0A3,3 0 1,1 0,-3A3,3 0 0,1 3,0Z" style="opacity: 1; stroke-width: 0px; fill: rgb(14, 83, 139); fill-opacity: 1;"/><path class="point" transform="translate(649.52,45.65)" d="M3,0A3,3 0 1,1 0,-3A3,3 0 0,1 3,0Z" style="opacity: 1; stroke-width: 0px; fill: rgb(14, 83, 139); fill-opacity: 1;"/><path class="point" transform="translate(698.54,53.64)" d="M3,0A3,3 0 1,1 0,-3A3,3 0 0,1 3,0Z" style="opacity: 1; stroke-width: 0px; fill: rgb(14, 83, 139); fill-opacity: 1;"/><path class="point" transform="translate(747.55,47.83)" d="M3,0A3,3 0 1,1 0,-3A3,3 0 0,1 3,0Z" style="opacity: 1; stroke-width: 0px; fill: rgb(14, 83, 139); fill-opacity: 1;"/><path class="point" transform="translate(796.56,33.31)" d="M3,0A3,3 0 1,1 0,-3A3,3 0 0,1 3,0Z" style="opacity: 1; stroke-width: 0px; fill: rgb(14, 83, 139); fill-opacity: 1;"/><path class="point" transform="translate(845.58,31.13)" d="M3,0A3,3 0 1,1 0,-3A3,3 0 0,1 3,0Z" style="opacity: 1; stroke-width: 0px; fill: rgb(14, 83, 139); fill-opacity: 1;"/><path class="point" transform="translate(894.59,33.31)" d="M3,0A3,3 0 1,1 0,-3A3,3 0 0,1 3,0Z" style="opacity: 1; stroke-width: 0px; fill: rgb(14, 83, 139); fill-opacity: 1;"/><path class="point" transform="translate(943.61,42.02)" d="M3,0A3,3 0 1,1 0,-3A3,3 0 0,1 3,0Z" style="opacity: 1; stroke-width: 0px; fill: rgb(14, 83, 139); fill-opacity: 1;"/><path class="point" transform="translate(992.62,42.75)" d="M3,0A3,3 0 1,1 0,-3A3,3 0 0,1 3,0Z" style="opacity: 1; stroke-width: 0px; fill: rgb(14, 83, 139); fill-opacity: 1;"/><path class="point" transform="translate(1041.64,40.57)" d="M3,0A3,3 0 1,1 0,-3A3,3 0 0,1 3,0Z" style="opacity: 1; stroke-width: 0px; fill: rgb(14, 83, 139); fill-opacity: 1;"/><path class="point" transform="translate(1090.65,55.82)" d="M3,0A3,3 0 1,1 0,-3A3,3 0 0,1 3,0Z" style="opacity: 1; stroke-width: 0px; fill: rgb(14, 83, 139); fill-opacity: 1;"/></g><g class="text"/></g><g class="trace scatter traced7d6ff" style="stroke-miterlimit: 2; opacity: 1;"><g class="fills"/><g class="errorbars"/><g class="lines"><path class="js-line" d="M61.35,489.3L110.36,350.62L159.38,268.57L208.39,226.45L257.41,182.89L306.42,139.32L355.44,120.44L404.45,103.02L453.46,83.41L502.48,67.44L551.49,73.25L600.51,46.38L649.52,47.11L698.54,61.63L747.55,47.83L796.56,182.89" style="vector-effect: non-scaling-stroke; fill: none; stroke: rgb(138, 99, 191); stroke-opacity: 1; stroke-width: 2px; opacity: 1;"/></g><g class="points"><path class="point" transform="translate(61.35,489.3)" d="M3,0A3,3 0 1,1 0,-3A3,3 0 0,1 3,0Z" style="opacity: 1; stroke-width: 0px; fill: rgb(138, 99, 191); fill-opacity: 1;"/><path class="point" transform="translate(61.35,489.3)" d="M3,0A3,3 0 1,1 0,-3A3,3 0 0,1 3,0Z" style="opacity: 1; stroke-width: 0px; fill: rgb(138, 99, 191); fill-opacity: 1;"/><path class="point" transform="translate(110.36,350.62)" d="M3,0A3,3 0 1,1 0,-3A3,3 0 0,1 3,0Z" style="opacity: 1; stroke-width: 0px; fill: rgb(138, 99, 191); fill-opacity: 1;"/><path class="point" transform="translate(159.38,268.57)" d="M3,0A3,3 0 1,1 0,-3A3,3 0 0,1 3,0Z" style="opacity: 1; stroke-width: 0px; fill: rgb(138, 99, 191); fill-opacity: 1;"/><path class="point" transform="translate(208.39,226.45)" d="M3,0A3,3 0 1,1 0,-3A3,3 0 0,1 3,0Z" style="opacity: 1; stroke-width: 0px; fill: rgb(138, 99, 191); fill-opacity: 1;"/><path class="point" transform="translate(257.41,182.89)" d="M3,0A3,3 0 1,1 0,-3A3,3 0 0,1 3,0Z" style="opacity: 1; stroke-width: 0px; fill: rgb(138, 99, 191); fill-opacity: 1;"/><path class="point" transform="translate(306.42,139.32)" d="M3,0A3,3 0 1,1 0,-3A3,3 0 0,1 3,0Z" style="opacity: 1; stroke-width: 0px; fill: rgb(138, 99, 191); fill-opacity: 1;"/><path class="point" transform="translate(355.44,120.44)" d="M3,0A3,3 0 1,1 0,-3A3,3 0 0,1 3,0Z" style="opacity: 1; stroke-width: 0px; fill: rgb(138, 99, 191); fill-opacity: 1;"/><path class="point" transform="translate(404.45,103.02)" d="M3,0A3,3 0 1,1 0,-3A3,3 0 0,1 3,0Z" style="opacity: 1; stroke-width: 0px; fill: rgb(138, 99, 191); fill-opacity: 1;"/><path class="point" transform="translate(453.46,83.41)" d="M3,0A3,3 0 1,1 0,-3A3,3 0 0,1 3,0Z" style="opacity: 1; stroke-width: 0px; fill: rgb(138, 99, 191); fill-opacity: 1;"/><path class="point" transform="translate(502.48,67.44)" d="M3,0A3,3 0 1,1 0,-3A3,3 0 0,1 3,0Z" style="opacity: 1; stroke-width: 0px; fill: rgb(138, 99, 191); fill-opacity: 1;"/><path class="point" transform="translate(551.49,73.25)" d="M3,0A3,3 0 1,1 0,-3A3,3 0 0,1 3,0Z" style="opacity: 1; stroke-width: 0px; fill: rgb(138, 99, 191); fill-opacity: 1;"/><path class="point" transform="translate(600.51,46.38)" d="M3,0A3,3 0 1,1 0,-3A3,3 0 0,1 3,0Z" style="opacity: 1; stroke-width: 0px; fill: rgb(138, 99, 191); fill-opacity: 1;"/><path class="point" transform="translate(649.52,47.11)" d="M3,0A3,3 0 1,1 0,-3A3,3 0 0,1 3,0Z" style="opacity: 1; stroke-width: 0px; fill: rgb(138, 99, 191); fill-opacity: 1;"/><path class="point" transform="translate(698.54,61.63)" d="M3,0A3,3 0 1,1 0,-3A3,3 0 0,1 3,0Z" style="opacity: 1; stroke-width: 0px; fill: rgb(138, 99, 191); fill-opacity: 1;"/><path class="point" transform="translate(747.55,47.83)" d="M3,0A3,3 0 1,1 0,-3A3,3 0 0,1 3,0Z" style="opacity: 1; stroke-width: 0px; fill: rgb(138, 99, 191); fill-opacity: 1;"/><path class="point" transform="translate(796.56,182.89)" d="M3,0A3,3 0 1,1 0,-3A3,3 0 0,1 3,0Z" style="opacity: 1; stroke-width: 0px; fill: rgb(138, 99, 191); fill-opacity: 1;"/></g><g class="text"/></g></g></g><g class="overplot"/><path class="xlines-above crisp" d="M0,0" style="fill: none;"/><path class="ylines-above crisp" d="M0,0" style="fill: none;"/><g class="overlines-above"/><g class="xaxislayer-above"><g class="xtick"><text text-anchor="middle" x="0" y="531" transform="translate(109.35,0)" style="font-family: 'Open Sans', verdana, arial, sans-serif; font-size: 11px; fill: rgb(146, 164, 179); fill-opacity: 1; white-space: pre; opacity: 1;">0</text></g><g class="xtick"><text text-anchor="middle" x="0" y="531" style="font-family: 'Open Sans', verdana, arial, sans-serif; font-size: 11px; fill: rgb(146, 164, 179); fill-opacity: 1; white-space: pre; opacity: 1;" transform="translate(354.42,0)">5</text></g><g class="xtick"><text text-anchor="middle" x="0" y="531" style="font-family: 'Open Sans', verdana, arial, sans-serif; font-size: 11px; fill: rgb(146, 164, 179); fill-opacity: 1; white-space: pre; opacity: 1;" transform="translate(599.49,0)">10</text></g><g class="xtick"><text text-anchor="middle" x="0" y="531" style="font-family: 'Open Sans', verdana, arial, sans-serif; font-size: 11px; fill: rgb(146, 164, 179); fill-opacity: 1; white-space: pre; opacity: 1;" transform="translate(844.56,0)">15</text></g><g class="xtick"><text text-anchor="middle" x="0" y="531" style="font-family: 'Open Sans', verdana, arial, sans-serif; font-size: 11px; fill: rgb(146, 164, 179); fill-opacity: 1; white-space: pre; opacity: 1;" transform="translate(1089.64,0)">20</text></g></g><g class="yaxislayer-above"><g class="ytick"><text text-anchor="end" x="47" y="3.8499999999999996" transform="translate(0,509.2)" style="font-family: 'Open Sans', verdana, arial, sans-serif; font-size: 11px; fill: rgb(146, 164, 179); fill-opacity: 1; white-space: pre; opacity: 1;">0.1</text></g><g class="ytick"><text text-anchor="end" x="47" y="3.8499999999999996" style="font-family: 'Open Sans', verdana, arial, sans-serif; font-size: 11px; fill: rgb(146, 164, 179); fill-opacity: 1; white-space: pre; opacity: 1;" transform="translate(0,455.75)">0.2</text></g><g class="ytick"><text text-anchor="end" x="47" y="3.8499999999999996" style="font-family: 'Open Sans', verdana, arial, sans-serif; font-size: 11px; fill: rgb(146, 164, 179); fill-opacity: 1; white-space: pre; opacity: 1;" transform="translate(0,402.31)">0.3</text></g><g class="ytick"><text text-anchor="end" x="47" y="3.8499999999999996" style="font-family: 'Open Sans', verdana, arial, sans-serif; font-size: 11px; fill: rgb(146, 164, 179); fill-opacity: 1; white-space: pre; opacity: 1;" transform="translate(0,348.87)">0.4</text></g><g class="ytick"><text text-anchor="end" x="47" y="3.8499999999999996" style="font-family: 'Open Sans', verdana, arial, sans-serif; font-size: 11px; fill: rgb(146, 164, 179); fill-opacity: 1; white-space: pre; opacity: 1;" transform="translate(0,295.43)">0.5</text></g><g class="ytick"><text text-anchor="end" x="47" y="3.8499999999999996" style="font-family: 'Open Sans', verdana, arial, sans-serif; font-size: 11px; fill: rgb(146, 164, 179); fill-opacity: 1; white-space: pre; opacity: 1;" transform="translate(0,241.99)">0.6</text></g><g class="ytick"><text text-anchor="end" x="47" y="3.8499999999999996" style="font-family: 'Open Sans', verdana, arial, sans-serif; font-size: 11px; fill: rgb(146, 164, 179); fill-opacity: 1; white-space: pre; opacity: 1;" transform="translate(0,188.55)">0.7</text></g><g class="ytick"><text text-anchor="end" x="47" y="3.8499999999999996" style="font-family: 'Open Sans', verdana, arial, sans-serif; font-size: 11px; fill: rgb(146, 164, 179); fill-opacity: 1; white-space: pre; opacity: 1;" transform="translate(0,135.11)">0.8</text></g><g class="ytick"><text text-anchor="end" x="47" y="3.8499999999999996" style="font-family: 'Open Sans', verdana, arial, sans-serif; font-size: 11px; fill: rgb(146, 164, 179); fill-opacity: 1; white-space: pre; opacity: 1;" transform="translate(0,81.67)">0.9</text></g><g class="ytick"><text text-anchor="end" x="47" y="3.8499999999999996" style="font-family: 'Open Sans', verdana, arial, sans-serif; font-size: 11px; fill: rgb(146, 164, 179); fill-opacity: 1; white-space: pre; opacity: 1;" transform="translate(0,28.23)">1</text></g></g><g class="overaxes-above"/></g></g><g class="polarlayer"/><g class="ternarylayer"/><g class="geolayer"/><g class="funnelarealayer"/><g class="pielayer"/><g class="iciclelayer"/><g class="treemaplayer"/><g class="sunburstlayer"/><g class="glimages"/><defs id="topdefs-cd946c"><g class="clips"/><clipPath id="legendcd946c"><rect width="438" height="29" x="0" y="0"/></clipPath></defs><g class="layer-above"><g class="imagelayer"/><g class="shapelayer"/></g><g class="infolayer"><g class="legend" pointer-events="all" transform="translate(48,570.9000000000001)"><rect class="bg" shape-rendering="crispEdges" width="438" height="29" x="0" y="0" style="stroke: rgb(68, 68, 68); stroke-opacity: 1; fill: rgb(255, 255, 255); fill-opacity: 1; stroke-width: 0px;"/><g class="scrollbox" transform="" clip-path="url(#legendcd946c)"><g class="groups"><g class="traces" transform="translate(0,14.5)" style="opacity: 1;"><text class="legendtext" text-anchor="start" x="40" y="4.680000000000001" style="font-family: 'Open Sans', verdana, arial, sans-serif; font-size: 12px; fill: rgb(232, 236, 240); fill-opacity: 1; white-space: pre;">75_frames</text><g class="layers" style="opacity: 1;"><g class="legendfill"/><g class="legendlines"><path class="js-line" d="M5,0h30" style="fill: none; stroke: rgb(147, 50, 11); stroke-opacity: 1; stroke-width: 2px;"/></g><g class="legendsymbols"><g class="legendpoints"><path class="scatterpts" transform="translate(20,0)" d="M3,0A3,3 0 1,1 0,-3A3,3 0 0,1 3,0Z" style="opacity: 1; stroke-width: 0px; fill: rgb(147, 50, 11); fill-opacity: 1;"/></g></g></g><rect class="legendtoggle" x="0" y="-9.5" width="106.9429702758789" height="19" style="fill: rgb(0, 0, 0); fill-opacity: 0;"/></g><g class="traces" transform="translate(109.4429702758789,14.5)" style="opacity: 1;"><text class="legendtext" text-anchor="start" x="40" y="4.680000000000001" style="font-family: 'Open Sans', verdana, arial, sans-serif; font-size: 12px; fill: rgb(232, 236, 240); fill-opacity: 1; white-space: pre;">90_frames</text><g class="layers" style="opacity: 1;"><g class="legendfill"/><g class="legendlines"><path class="js-line" d="M5,0h30" style="fill: none; stroke: rgb(200, 45, 76); stroke-opacity: 1; stroke-width: 2px;"/></g><g class="legendsymbols"><g class="legendpoints"><path class="scatterpts" transform="translate(20,0)" d="M3,0A3,3 0 1,1 0,-3A3,3 0 0,1 3,0Z" style="opacity: 1; stroke-width: 0px; fill: rgb(200, 45, 76); fill-opacity: 1;"/></g></g></g><rect class="legendtoggle" x="0" y="-9.5" width="106.9429702758789" height="19" style="fill: rgb(0, 0, 0); fill-opacity: 0;"/></g><g class="traces" transform="translate(218.8859405517578,14.5)" style="opacity: 1;"><text class="legendtext" text-anchor="start" x="40" y="4.680000000000001" style="font-family: 'Open Sans', verdana, arial, sans-serif; font-size: 12px; fill: rgb(232, 236, 240); fill-opacity: 1; white-space: pre;">60_frames</text><g class="layers" style="opacity: 1;"><g class="legendfill"/><g class="legendlines"><path class="js-line" d="M5,0h30" style="fill: none; stroke: rgb(14, 83, 139); stroke-opacity: 1; stroke-width: 2px;"/></g><g class="legendsymbols"><g class="legendpoints"><path class="scatterpts" transform="translate(20,0)" d="M3,0A3,3 0 1,1 0,-3A3,3 0 0,1 3,0Z" style="opacity: 1; stroke-width: 0px; fill: rgb(14, 83, 139); fill-opacity: 1;"/></g></g></g><rect class="legendtoggle" x="0" y="-9.5" width="106.9429702758789" height="19" style="fill: rgb(0, 0, 0); fill-opacity: 0;"/></g><g class="traces" transform="translate(328.3289108276367,14.5)" style="opacity: 1;"><text class="legendtext" text-anchor="start" x="40" y="4.680000000000001" style="font-family: 'Open Sans', verdana, arial, sans-serif; font-size: 12px; fill: rgb(232, 236, 240); fill-opacity: 1; white-space: pre;">45_frames</text><g class="layers" style="opacity: 1;"><g class="legendfill"/><g class="legendlines"><path class="js-line" d="M5,0h30" style="fill: none; stroke: rgb(138, 99, 191); stroke-opacity: 1; stroke-width: 2px;"/></g><g class="legendsymbols"><g class="legendpoints"><path class="scatterpts" transform="translate(20,0)" d="M3,0A3,3 0 1,1 0,-3A3,3 0 0,1 3,0Z" style="opacity: 1; stroke-width: 0px; fill: rgb(138, 99, 191); fill-opacity: 1;"/></g></g></g><rect class="legendtoggle" x="0" y="-9.5" width="106.9429702758789" height="19" style="fill: rgb(0, 0, 0); fill-opacity: 0;"/></g></g></g><rect class="scrollbar" rx="20" ry="3" width="0" height="0" x="0" y="0" style="fill: rgb(128, 139, 164); fill-opacity: 1;"/></g><g class="g-gtitle"/><g class="g-xtitle"><text class="xtitle" x="624" y="571" text-anchor="middle" style="font-family: 'Open Sans', verdana, arial, sans-serif; font-size: 14px; fill: rgb(232, 236, 240); opacity: 1; font-weight: normal; white-space: pre;">Step</text></g><g class="g-ytitle"/></g></svg>